<svg width="450" height="450" viewBox="0 0 450 450" fill="none" xmlns="http://www.w3.org/2000/svg">
<path d="M196.95 156.1H208.8V235.45H196.95V156.1ZM175.95 189.85H201.45V200.05H175.95V189.85ZM167.85 158.5H179.55V233.65H167.85V158.5ZM119.7 242.35H208.8V289.9H119.7V242.35ZM196.65 252.25H132V279.7H196.65V252.25ZM122.85 163.75H132.75V181.6C132.75 188.3 131.5 194.95 129 201.55C126.5 208.15 122.9 214.15 118.2 219.55C113.6 224.85 107.95 229 101.25 232L94.5 222.25C100.4 219.65 105.45 216.15 109.65 211.75C113.95 207.35 117.2 202.5 119.4 197.2C121.7 191.9 122.85 186.7 122.85 181.6V163.75ZM124.95 163.75H134.85V181.75C134.85 186.75 135.9 191.65 138 196.45C140.2 201.25 143.35 205.6 147.45 209.5C151.65 213.4 156.6 216.5 162.3 218.8L155.7 228.1C149.2 225.5 143.65 221.85 139.05 217.15C134.45 212.35 130.95 206.9 128.55 200.8C126.15 194.7 124.95 188.35 124.95 181.75V163.75ZM243.888 160.15H343.338V169.75H243.888V160.15ZM244.338 195.55H342.888V205.15H244.338V195.55ZM264.288 163.75H276.738V202H264.288V163.75ZM310.488 163.75H322.938V202H310.488V163.75ZM232.488 216.4H355.038V226.45H232.488V216.4ZM247.338 238.3H339.288V268.15H259.788V284.5H247.638V259.15H327.138V247.6H247.338V238.3ZM247.638 280.6H343.338V290.2H247.638V280.6Z" fill="#020202"/>
</svg>
